<svg width="358" height="499" viewBox="0 0 358 499" fill="none" xmlns="http://www.w3.org/2000/svg">
<path d="M179 0.5C277.583 0.5 357.5 80.4172 357.5 179V476.589C218.13 504.494 139.877 506.443 0.5 476.595V179C0.500007 80.4172 80.4172 0.5 179 0.5Z" fill="#F6C298"/>
<path d="M179 0.5C277.583 0.5 357.5 80.4172 357.5 179V476.589C218.13 504.494 139.877 506.443 0.5 476.595V179C0.500007 80.4172 80.4172 0.5 179 0.5Z" stroke="black"/>
<path d="M179 0.5C277.583 0.5 357.5 80.4172 357.5 179V476.589C218.13 504.494 139.877 506.443 0.5 476.595V179C0.500007 80.4172 80.4172 0.5 179 0.5Z" stroke="black" stroke-opacity="0.2"/>
<circle cx="121.5" cy="195.5" r="53.5" fill="white"/>
<circle cx="252.5" cy="195.5" r="53.5" fill="white"/>
<circle cx="252.5" cy="195.5" r="32.5" fill="#0D0D0D"/>
<circle cx="116.5" cy="195.5" r="32.5" fill="#0D0D0D"/>
<circle cx="105" cy="185" r="11" fill="white"/>
<circle cx="248" cy="181" r="11" fill="white"/>
<circle cx="99.5" cy="208.5" r="5.5" fill="white"/>
<circle cx="262" cy="208" r="6" fill="white"/>
<path d="M144 272C158.866 287.847 198.279 310.033 237 272" stroke="black" stroke-width="9" stroke-linecap="round"/>
</svg>
